# MagicaVoxel @ Ephtracy

# group
o 

# material
mtllib TaleDoroga2.mtl
usemtl palette

# normals
vn -1 0 0
vn 1 0 0
vn 0 0 1
vn 0 0 -1
vn 0 -1 0
vn 0 1 0

# texcoords
vt 0.845703 0.5
vt 0.849609 0.5
vt 0.908203 0.5
vt 0.912109 0.5
vt 0.970703 0.5
vt 0.974609 0.5

# verts
v -2 0 2
v -2 0 -2
v -2 0.3 1.6
v -2 0.3 -1.6
v -2 0.4 2
v -2 0.4 1.8
v -2 0.4 1.6
v -2 0.4 -1.6
v -2 0.4 -1.7
v -2 0.4 -1.8
v -2 0.4 -2
v -2 0.5 2
v -2 0.5 1.8
v -2 0.5 -1.7
v -2 0.5 -1.8
v -2 0.5 -2
v 0.3 0.3 1.6
v 0.3 0.3 1.5
v 0.3 0.4 1.6
v 0.3 0.4 1.5
v 0.4 0.4 1.8
v 0.4 0.4 1.6
v 0.4 0.5 1.8
v 0.4 0.5 1.6
v 0.5 0.3 1.5
v 0.5 0.3 1.3
v 0.5 0.4 1.5
v 0.5 0.4 1.3
v 0.6 0.4 1.6
v 0.6 0.4 1.4
v 0.6 0.5 1.6
v 0.6 0.5 1.4
v 0.7 0.3 1.3
v 0.7 0.3 1.1
v 0.7 0.4 1.3
v 0.7 0.4 1.1
v 0.8 0.4 1.4
v 0.8 0.4 1.2
v 0.8 0.5 1.4
v 0.8 0.5 1.2
v 0.9 0.3 1.1
v 0.9 0.3 1
v 0.9 0.3 0.9
v 0.9 0.4 1.1
v 0.9 0.4 0.9
v 1 0.4 1.2
v 1 0.4 1
v 1 0.5 1.2
v 1 0.5 1
v 1.1 0.3 0.9
v 1.1 0.3 0.7
v 1.1 0.4 0.9
v 1.1 0.4 0.7
v 1.2 0.4 1
v 1.2 0.4 0.8
v 1.2 0.5 1
v 1.2 0.5 0.8
v 1.3 0.3 0.7
v 1.3 0.3 0.5
v 1.3 0.4 0.7
v 1.3 0.4 0.5
v 1.3 0.5 1.7
v 1.3 0.5 1.5
v 1.3 0.6 1.7
v 1.3 0.6 1.5
v 1.4 0.4 0.8
v 1.4 0.4 0.6
v 1.4 0.5 0.8
v 1.4 0.5 0.6
v 1.4 0.6 1.7
v 1.4 0.6 1.6
v 1.4 0.7 1.7
v 1.4 0.7 1.6
v 1.5 0.3 0.5
v 1.5 0.3 0.3
v 1.5 0.4 0.5
v 1.5 0.4 0.3
v 1.5 0.5 1.5
v 1.5 0.5 1.3
v 1.5 0.6 1.6
v 1.5 0.6 1.5
v 1.5 0.6 1.4
v 1.5 0.6 1.3
v 1.5 0.7 1.6
v 1.5 0.7 1.5
v 1.5 0.7 1.4
v 1.5 0.8 1.6
v 1.5 0.8 1.5
v 1.6 0.3 0.3
v 1.6 0.3 -2
v 1.6 0.4 0.6
v 1.6 0.4 0.4
v 1.6 0.4 0.3
v 1.6 0.4 -2
v 1.6 0.5 1.3
v 1.6 0.5 1.2
v 1.6 0.5 0.6
v 1.6 0.5 0.4
v 1.6 0.6 1.3
v 1.6 0.6 1.2
v 1.8 0.4 0.4
v 1.8 0.4 -0.2
v 1.8 0.4 -0.9
v 1.8 0.4 -1.2
v 1.8 0.4 -2
v 1.8 0.5 0.4
v 1.8 0.5 -0.2
v 1.8 0.5 -0.9
v 1.8 0.5 -1.2
v 1.8 0.5 -2
v -1.7 0.4 -1.7
v -1.7 0.4 -2
v -1.7 0.5 -1.7
v -1.7 0.5 -2
v -1.6 0.3 -1.6
v -1.6 0.3 -2
v -1.6 0.4 -1.6
v -1.6 0.4 -2
v 1.5 0.6 1.7
v 1.5 0.6 1.6
v 1.5 0.7 1.7
v 1.5 0.7 1.6
v 1.6 0.7 1.6
v 1.6 0.7 1.5
v 1.6 0.8 1.6
v 1.6 0.8 1.5
v 1.7 0.5 1.7
v 1.7 0.5 1.6
v 1.7 0.5 1.4
v 1.7 0.5 1.3
v 1.7 0.5 1.2
v 1.7 0.6 1.7
v 1.7 0.6 1.6
v 1.7 0.6 1.5
v 1.7 0.6 1.4
v 1.7 0.6 1.3
v 1.7 0.6 1.2
v 1.7 0.7 1.6
v 1.7 0.7 1.5
v 1.7 0.7 1.4
v 1.8 0.5 1.6
v 1.8 0.5 1.5
v 1.8 0.5 1.4
v 1.8 0.6 1.6
v 1.8 0.6 1.5
v 1.8 0.6 1.4
v 2 0 2
v 2 0 -2
v 2 0.4 2
v 2 0.4 1.2
v 2 0.4 -0.2
v 2 0.4 -0.9
v 2 0.4 -1.2
v 2 0.4 -1.5
v 2 0.4 -1.7
v 2 0.4 -2
v 2 0.5 2
v 2 0.5 1.2
v 2 0.5 -0.2
v 2 0.5 -0.9
v 2 0.5 -1.2
v 2 0.5 -1.5
v 2 0.5 -1.7
v 2 0.5 -2
v -2 0 2
v -2 0.4 2
v -2 0.5 2
v -1.6 0.3 2
v -1.6 0.4 2
v 0.1 0.2 2
v 0.1 0.3 2
v 0.5 0.2 2
v 0.5 0.3 2
v 1.6 0.3 2
v 1.6 0.4 2
v 2 0 2
v 2 0.4 2
v 2 0.5 2
v 1.3 0.5 1.7
v 1.3 0.6 1.7
v 1.4 0.6 1.7
v 1.4 0.7 1.7
v 1.5 0.6 1.7
v 1.5 0.7 1.7
v 1.7 0.5 1.7
v 1.7 0.6 1.7
v 1.5 0.6 1.6
v 1.5 0.7 1.6
v 1.5 0.8 1.6
v 1.6 0.6 1.6
v 1.6 0.7 1.6
v 1.6 0.8 1.6
v 1.7 0.5 1.6
v 1.7 0.6 1.6
v 1.7 0.7 1.6
v 1.8 0.5 1.6
v 1.8 0.6 1.6
v -2 0.3 -1.6
v -2 0.4 -1.6
v -1.6 0.3 -1.6
v -1.6 0.4 -1.6
v -2 0.4 -1.7
v -2 0.5 -1.7
v -1.7 0.4 -1.7
v -1.7 0.5 -1.7
v -2 0.4 1.8
v -2 0.5 1.8
v 0.4 0.4 1.8
v 0.4 0.5 1.8
v -2 0.3 1.6
v -2 0.4 1.6
v -1.4 0.3 1.6
v -1.2 0.3 1.6
v -0.9 0.3 1.6
v -0.5 0.3 1.6
v 0.1 0.3 1.6
v 0.2 0.3 1.6
v 0.3 0.3 1.6
v 0.3 0.4 1.6
v 0.4 0.4 1.6
v 0.4 0.5 1.6
v 0.6 0.4 1.6
v 0.6 0.5 1.6
v 1.4 0.6 1.6
v 1.4 0.7 1.6
v 1.5 0.6 1.6
v 1.5 0.7 1.6
v 0.3 0.3 1.5
v 0.3 0.4 1.5
v 0.5 0.3 1.5
v 0.5 0.4 1.5
v 1.3 0.5 1.5
v 1.3 0.6 1.5
v 1.5 0.5 1.5
v 1.5 0.6 1.5
v 1.5 0.7 1.5
v 1.5 0.8 1.5
v 1.6 0.7 1.5
v 1.6 0.8 1.5
v 0.6 0.4 1.4
v 0.6 0.5 1.4
v 0.8 0.4 1.4
v 0.8 0.5 1.4
v 1.5 0.6 1.4
v 1.5 0.7 1.4
v 1.6 0.6 1.4
v 1.6 0.7 1.4
v 1.7 0.5 1.4
v 1.7 0.6 1.4
v 1.7 0.7 1.4
v 1.8 0.5 1.4
v 1.8 0.6 1.4
v 0.5 0.3 1.3
v 0.5 0.4 1.3
v 0.6 0.3 1.3
v 0.7 0.3 1.3
v 0.7 0.4 1.3
v 1.5 0.5 1.3
v 1.5 0.6 1.3
v 1.6 0.5 1.3
v 1.6 0.6 1.3
v 0.8 0.4 1.2
v 0.8 0.5 1.2
v 1 0.4 1.2
v 1 0.5 1.2
v 1.6 0.5 1.2
v 1.6 0.6 1.2
v 1.7 0.5 1.2
v 1.7 0.6 1.2
v 0.7 0.3 1.1
v 0.7 0.4 1.1
v 0.9 0.3 1.1
v 0.9 0.4 1.1
v 1 0.4 1
v 1 0.5 1
v 1.2 0.4 1
v 1.2 0.5 1
v 0.9 0.3 0.9
v 0.9 0.4 0.9
v 1 0.3 0.9
v 1.1 0.3 0.9
v 1.1 0.4 0.9
v 1.2 0.4 0.8
v 1.2 0.5 0.8
v 1.4 0.4 0.8
v 1.4 0.5 0.8
v 1.1 0.3 0.7
v 1.1 0.4 0.7
v 1.3 0.3 0.7
v 1.3 0.4 0.7
v 1.4 0.4 0.6
v 1.4 0.5 0.6
v 1.6 0.4 0.6
v 1.6 0.5 0.6
v 1.3 0.3 0.5
v 1.3 0.4 0.5
v 1.5 0.3 0.5
v 1.5 0.4 0.5
v 1.6 0.4 0.4
v 1.6 0.5 0.4
v 1.8 0.4 0.4
v 1.8 0.5 0.4
v 1.5 0.3 0.3
v 1.5 0.4 0.3
v 1.6 0.3 0.3
v 1.6 0.4 0.3
v -2 0 -2
v -2 0.4 -2
v -2 0.5 -2
v -1.8 0.4 -2
v -1.8 0.5 -2
v -1.7 0.4 -2
v -1.7 0.5 -2
v -1.6 0.3 -2
v -1.6 0.4 -2
v 1.6 0.3 -2
v 1.6 0.4 -2
v 1.8 0.4 -2
v 1.8 0.5 -2
v 2 0 -2
v 2 0.4 -2
v 2 0.5 -2
v -2 0 2
v 2 0 2
v -2 0 -2
v 2 0 -2
v -2 0.3 1.6
v -1.4 0.3 1.6
v -1.2 0.3 1.6
v -0.9 0.3 1.6
v -0.5 0.3 1.6
v 0.1 0.3 1.6
v 0.2 0.3 1.6
v 0.3 0.3 1.6
v 0.3 0.3 1.5
v 0.5 0.3 1.5
v -1.4 0.3 1.3
v -1.2 0.3 1.3
v -0.9 0.3 1.3
v -0.5 0.3 1.3
v 0.5 0.3 1.3
v 0.6 0.3 1.3
v 0.7 0.3 1.3
v 0.1 0.3 1.2
v 0.2 0.3 1.2
v -0.8 0.3 1.1
v -0.7 0.3 1.1
v 0.6 0.3 1.1
v 0.7 0.3 1.1
v 0.9 0.3 1.1
v -0.8 0.3 1
v -0.7 0.3 1
v 0.8 0.3 1
v 0.9 0.3 1
v 0.9 0.3 0.9
v 1 0.3 0.9
v 1.1 0.3 0.9
v -1.1 0.3 0.8
v -0.8 0.3 0.8
v 2.38419e-007 0.3 0.8
v 0.2 0.3 0.8
v -0.6 0.3 0.7
v -0.4 0.3 0.7
v 1.1 0.3 0.7
v 1.3 0.3 0.7
v 2.38419e-007 0.3 0.5
v 0.2 0.3 0.5
v 0.3 0.3 0.5
v 0.5 0.3 0.5
v 0.8 0.3 0.5
v 1 0.3 0.5
v 1.3 0.3 0.5
v 1.5 0.3 0.5
v -1.1 0.3 0.4
v -0.8 0.3 0.4
v -0.6 0.3 0.3
v -0.4 0.3 0.3
v 1.5 0.3 0.3
v 1.6 0.3 0.3
v -0.4 0.3 0.2
v -0.2 0.3 0.2
v -1.4 0.3 0.0999999
v -1.2 0.3 0.0999999
v -0.7 0.3 0.0999999
v -0.5 0.3 0.0999999
v 0.3 0.3 0.0999999
v 0.5 0.3 0.0999999
v 0.7 0.3 0.0999999
v -0.4 0.3 -2.38419e-007
v -0.2 0.3 -2.38419e-007
v -1.4 0.3 -0.2
v -1.2 0.3 -0.2
v 2.38419e-007 0.3 -0.2
v 0.1 0.3 -0.2
v -0.7 0.3 -0.3
v -0.5 0.3 -0.3
v 0.5 0.3 -0.3
v 0.7 0.3 -0.3
v 0.8 0.3 -0.3
v 1.2 0.3 -0.3
v -1.5 0.3 -0.5
v -1.2 0.3 -0.5
v -1 0.3 -0.5
v -0.9 0.3 -0.5
v -0.3 0.3 -0.5
v 2.38419e-007 0.3 -0.5
v 0.1 0.3 -0.5
v 0.6 0.3 -0.5
v 0.8 0.3 -0.5
v 0.9 0.3 -0.5
v 1.2 0.3 -0.5
v -1.5 0.3 -0.8
v -1.2 0.3 -0.8
v -1 0.3 -0.8
v -0.9 0.3 -0.8
v -0.3 0.3 -0.8
v 2.38419e-007 0.3 -0.8
v -0.7 0.3 -1
v -0.3 0.3 -1
v 0.2 0.3 -1
v 0.4 0.3 -1
v 0.2 0.3 -1.1
v 0.4 0.3 -1.1
v 0.6 0.3 -1.2
v 0.9 0.3 -1.2
v -0.7 0.3 -1.4
v -0.3 0.3 -1.4
v 1 0.3 -1.4
v 1.3 0.3 -1.4
v -1 0.3 -1.5
v -0.9 0.3 -1.5
v -0.0999999 0.3 -1.5
v 2.38419e-007 0.3 -1.5
v -2 0.3 -1.6
v -1.6 0.3 -1.6
v -0.0999999 0.3 -1.6
v 2.38419e-007 0.3 -1.6
v 0.2 0.3 -1.6
v 0.5 0.3 -1.6
v 0.2 0.3 -1.7
v 0.5 0.3 -1.7
v 1 0.3 -1.7
v 1.3 0.3 -1.7
v -1 0.3 -1.8
v -0.9 0.3 -1.8
v -0.6 0.3 -1.8
v -0.5 0.3 -1.8
v -0.6 0.3 -1.9
v -0.5 0.3 -1.9
v -1.6 0.3 -2
v 1.6 0.3 -2
v -2 0.4 1.8
v 0.4 0.4 1.8
v -2 0.4 1.6
v 0.3 0.4 1.6
v 0.4 0.4 1.6
v 0.6 0.4 1.6
v 0.3 0.4 1.5
v 0.5 0.4 1.5
v 0.6 0.4 1.4
v 0.8 0.4 1.4
v 0.5 0.4 1.3
v 0.7 0.4 1.3
v 0.8 0.4 1.2
v 1 0.4 1.2
v 0.7 0.4 1.1
v 0.9 0.4 1.1
v 1 0.4 1
v 1.2 0.4 1
v 0.9 0.4 0.9
v 1.1 0.4 0.9
v 1.2 0.4 0.8
v 1.4 0.4 0.8
v 1.1 0.4 0.7
v 1.3 0.4 0.7
v 1.4 0.4 0.6
v 1.6 0.4 0.6
v 1.3 0.4 0.5
v 1.5 0.4 0.5
v 1.6 0.4 0.4
v 1.8 0.4 0.4
v 1.5 0.4 0.3
v 1.6 0.4 0.3
v 1.8 0.4 -0.2
v 1.8 0.4 -0.9
v 1.8 0.4 -1.2
v -2 0.4 -1.6
v -1.6 0.4 -1.6
v -2 0.4 -1.7
v -1.7 0.4 -1.7
v -1.7 0.4 -2
v -1.6 0.4 -2
v 1.6 0.4 -2
v 1.8 0.4 -2
v -2 0.5 2
v 2 0.5 2
v -2 0.5 1.8
v 0.4 0.5 1.8
v 1.1 0.5 1.8
v 1.3 0.5 1.8
v 1.7 0.5 1.8
v 1.9 0.5 1.8
v 1.3 0.5 1.7
v 1.7 0.5 1.7
v 0.4 0.5 1.6
v 0.6 0.5 1.6
v 1.7 0.5 1.6
v 1.8 0.5 1.6
v 1.3 0.5 1.5
v 1.5 0.5 1.5
v 1.8 0.5 1.5
v 0.6 0.5 1.4
v 0.8 0.5 1.4
v 1.1 0.5 1.4
v 1.3 0.5 1.4
v 1.7 0.5 1.4
v 1.8 0.5 1.4
v 1.9 0.5 1.4
v 1.5 0.5 1.3
v 1.6 0.5 1.3
v 1.7 0.5 1.3
v 0.8 0.5 1.2
v 1 0.5 1.2
v 1.2 0.5 1.2
v 1.3 0.5 1.2
v 1.6 0.5 1.2
v 1.7 0.5 1.2
v 2 0.5 1.2
v 1.2 0.5 1.1
v 1.3 0.5 1.1
v 1 0.5 1
v 1.2 0.5 1
v 1.2 0.5 0.8
v 1.4 0.5 0.8
v 1.6 0.5 0.8
v 1.8 0.5 0.8
v 1.4 0.5 0.6
v 1.6 0.5 0.6
v 1.6 0.5 0.4
v 1.8 0.5 0.4
v 1.8 0.5 -0.2
v 2 0.5 -0.2
v 1.8 0.5 -0.9
v 2 0.5 -0.9
v 1.8 0.5 -1.2
v 2 0.5 -1.2
v 1.9 0.5 -1.5
v 2 0.5 -1.5
v -2 0.5 -1.7
v -1.7 0.5 -1.7
v 1.9 0.5 -1.7
v 2 0.5 -1.7
v -2 0.5 -1.8
v -1.8 0.5 -1.8
v -2 0.5 -2
v -1.8 0.5 -2
v -1.7 0.5 -2
v 1.8 0.5 -2
v 2 0.5 -2
v 1.3 0.6 1.7
v 1.4 0.6 1.7
v 1.5 0.6 1.7
v 1.7 0.6 1.7
v 1.4 0.6 1.6
v 1.5 0.6 1.6
v 1.6 0.6 1.6
v 1.7 0.6 1.6
v 1.8 0.6 1.6
v 1.3 0.6 1.5
v 1.5 0.6 1.5
v 1.7 0.6 1.5
v 1.8 0.6 1.5
v 1.5 0.6 1.4
v 1.6 0.6 1.4
v 1.7 0.6 1.4
v 1.8 0.6 1.4
v 1.5 0.6 1.3
v 1.6 0.6 1.3
v 1.7 0.6 1.3
v 1.6 0.6 1.2
v 1.7 0.6 1.2
v 1.4 0.7 1.7
v 1.5 0.7 1.7
v 1.4 0.7 1.6
v 1.5 0.7 1.6
v 1.6 0.7 1.6
v 1.7 0.7 1.6
v 1.5 0.7 1.5
v 1.6 0.7 1.5
v 1.7 0.7 1.5
v 1.5 0.7 1.4
v 1.6 0.7 1.4
v 1.7 0.7 1.4
v 1.5 0.8 1.6
v 1.6 0.8 1.6
v 1.5 0.8 1.5
v 1.6 0.8 1.5

# faces
f 3/5/1 2/5/1 1/5/1
f 4/5/1 2/5/1 3/5/1
f 5/5/1 3/5/1 1/5/1
f 6/5/1 3/5/1 5/5/1
f 7/5/1 3/5/1 6/5/1
f 8/5/1 2/5/1 4/5/1
f 9/5/1 2/5/1 8/5/1
f 10/5/1 2/5/1 9/5/1
f 11/5/1 2/5/1 10/5/1
f 12/3/1 6/3/1 5/3/1
f 13/3/1 6/3/1 12/3/1
f 14/3/1 10/3/1 9/3/1
f 15/4/1 11/4/1 10/4/1
f 15/3/1 10/3/1 14/3/1
f 16/4/1 11/4/1 15/4/1
f 19/5/1 18/5/1 17/5/1
f 20/5/1 18/5/1 19/5/1
f 23/3/1 22/3/1 21/3/1
f 24/3/1 22/3/1 23/3/1
f 27/5/1 26/5/1 25/5/1
f 28/5/1 26/5/1 27/5/1
f 31/3/1 30/3/1 29/3/1
f 32/3/1 30/3/1 31/3/1
f 35/5/1 34/5/1 33/5/1
f 36/5/1 34/5/1 35/5/1
f 39/3/1 38/3/1 37/3/1
f 40/3/1 38/3/1 39/3/1
f 44/5/1 42/5/1 41/5/1
f 44/5/1 43/5/1 42/5/1
f 45/5/1 43/5/1 44/5/1
f 48/3/1 47/3/1 46/3/1
f 49/3/1 47/3/1 48/3/1
f 52/5/1 51/5/1 50/5/1
f 53/5/1 51/5/1 52/5/1
f 56/3/1 55/3/1 54/3/1
f 57/3/1 55/3/1 56/3/1
f 60/5/1 59/5/1 58/5/1
f 61/5/1 59/5/1 60/5/1
f 64/1/1 63/1/1 62/1/1
f 65/1/1 63/1/1 64/1/1
f 68/3/1 67/3/1 66/3/1
f 69/3/1 67/3/1 68/3/1
f 72/2/1 71/2/1 70/2/1
f 73/2/1 71/2/1 72/2/1
f 76/5/1 75/5/1 74/5/1
f 77/5/1 75/5/1 76/5/1
f 81/1/1 79/1/1 78/1/1
f 82/1/1 79/1/1 81/1/1
f 83/1/1 79/1/1 82/1/1
f 84/1/1 81/1/1 80/1/1
f 85/2/1 82/2/1 81/2/1
f 85/1/1 81/1/1 84/1/1
f 86/2/1 82/2/1 85/2/1
f 87/1/1 85/1/1 84/1/1
f 88/1/1 85/1/1 87/1/1
f 93/5/1 90/5/1 89/5/1
f 94/5/1 90/5/1 93/5/1
f 97/3/1 92/3/1 91/3/1
f 98/3/1 92/3/1 97/3/1
f 99/1/1 96/1/1 95/1/1
f 100/1/1 96/1/1 99/1/1
f 106/4/1 102/4/1 101/4/1
f 107/3/1 103/3/1 102/3/1
f 107/4/1 102/4/1 106/4/1
f 108/4/1 104/4/1 103/4/1
f 108/3/1 103/3/1 107/3/1
f 109/3/1 105/3/1 104/3/1
f 109/4/1 104/4/1 108/4/1
f 110/3/1 105/3/1 109/3/1
f 111/3/2 112/3/2 113/3/2
f 113/3/2 112/3/2 114/3/2
f 115/5/2 116/5/2 117/5/2
f 117/5/2 116/5/2 118/5/2
f 119/2/2 120/2/2 121/2/2
f 121/2/2 120/2/2 122/2/2
f 123/1/2 124/1/2 125/1/2
f 125/1/2 124/1/2 126/1/2
f 127/1/2 128/1/2 132/1/2
f 132/1/2 128/1/2 133/1/2
f 129/2/2 130/2/2 135/2/2
f 130/1/2 131/1/2 136/1/2
f 135/2/2 130/2/2 136/2/2
f 136/1/2 131/1/2 137/1/2
f 133/2/2 134/2/2 138/2/2
f 134/1/2 135/1/2 139/1/2
f 138/2/2 134/2/2 139/2/2
f 139/1/2 135/1/2 140/1/2
f 141/1/2 142/1/2 144/1/2
f 142/2/2 143/2/2 145/2/2
f 144/1/2 142/1/2 145/1/2
f 145/2/2 143/2/2 146/2/2
f 147/5/2 148/5/2 149/5/2
f 149/5/2 148/5/2 150/5/2
f 150/5/2 148/5/2 151/5/2
f 151/5/2 148/5/2 152/5/2
f 152/5/2 148/5/2 153/5/2
f 153/5/2 148/5/2 154/5/2
f 154/5/2 148/5/2 155/5/2
f 155/5/2 148/5/2 156/5/2
f 149/3/2 150/3/2 157/3/2
f 150/4/2 151/4/2 158/4/2
f 157/3/2 150/3/2 158/3/2
f 151/3/2 152/3/2 159/3/2
f 158/4/2 151/4/2 159/4/2
f 152/4/2 153/4/2 160/4/2
f 159/3/2 152/3/2 160/3/2
f 153/3/2 154/3/2 161/3/2
f 160/4/2 153/4/2 161/4/2
f 154/4/2 155/4/2 162/4/2
f 161/3/2 154/3/2 162/3/2
f 155/3/2 156/3/2 163/3/2
f 162/4/2 155/4/2 163/4/2
f 163/3/2 156/3/2 164/3/2
f 168/5/3 166/5/3 165/5/3
f 169/3/3 167/3/3 166/3/3
f 169/5/3 166/5/3 168/5/3
f 170/5/3 168/5/3 165/5/3
f 171/3/3 169/3/3 168/3/3
f 171/5/3 168/5/3 170/5/3
f 172/5/3 170/5/3 165/5/3
f 172/6/3 171/6/3 170/6/3
f 173/3/3 169/3/3 171/3/3
f 173/6/3 171/6/3 172/6/3
f 174/5/3 173/5/3 172/5/3
f 174/3/3 169/3/3 173/3/3
f 175/3/3 167/3/3 169/3/3
f 175/3/3 169/3/3 174/3/3
f 176/5/3 174/5/3 172/5/3
f 176/5/3 172/5/3 165/5/3
f 176/5/3 175/5/3 174/5/3
f 177/3/3 167/3/3 175/3/3
f 177/5/3 175/5/3 176/5/3
f 178/3/3 167/3/3 177/3/3
f 181/1/3 180/1/3 179/1/3
f 183/1/3 181/1/3 179/1/3
f 183/2/3 182/2/3 181/2/3
f 184/2/3 182/2/3 183/2/3
f 185/1/3 183/1/3 179/1/3
f 186/1/3 183/1/3 185/1/3
f 190/1/3 188/1/3 187/1/3
f 190/1/3 189/1/3 188/1/3
f 191/1/3 189/1/3 190/1/3
f 192/1/3 189/1/3 191/1/3
f 194/2/3 191/2/3 190/2/3
f 195/2/3 191/2/3 194/2/3
f 196/1/3 194/1/3 193/1/3
f 197/1/3 194/1/3 196/1/3
f 200/5/3 199/5/3 198/5/3
f 201/5/3 199/5/3 200/5/3
f 204/3/3 203/3/3 202/3/3
f 205/3/3 203/3/3 204/3/3
f 206/3/4 207/3/4 208/3/4
f 208/3/4 207/3/4 209/3/4
f 210/5/4 211/5/4 212/5/4
f 212/5/4 211/5/4 213/5/4
f 213/5/4 211/5/4 214/5/4
f 214/5/4 211/5/4 215/5/4
f 215/5/4 211/5/4 216/5/4
f 216/5/4 211/5/4 217/5/4
f 217/5/4 211/5/4 218/5/4
f 218/5/4 211/5/4 219/5/4
f 220/3/4 221/3/4 222/3/4
f 222/3/4 221/3/4 223/3/4
f 224/2/4 225/2/4 226/2/4
f 226/2/4 225/2/4 227/2/4
f 228/5/4 229/5/4 230/5/4
f 230/5/4 229/5/4 231/5/4
f 232/1/4 233/1/4 234/1/4
f 234/1/4 233/1/4 235/1/4
f 236/1/4 237/1/4 238/1/4
f 238/1/4 237/1/4 239/1/4
f 240/3/4 241/3/4 242/3/4
f 242/3/4 241/3/4 243/3/4
f 244/2/4 245/2/4 246/2/4
f 246/2/4 245/2/4 247/2/4
f 246/1/4 247/1/4 249/1/4
f 249/1/4 247/1/4 250/1/4
f 248/2/4 249/2/4 251/2/4
f 251/2/4 249/2/4 252/2/4
f 253/5/4 254/5/4 255/5/4
f 255/5/4 254/5/4 256/5/4
f 256/5/4 254/5/4 257/5/4
f 258/1/4 259/1/4 260/1/4
f 260/1/4 259/1/4 261/1/4
f 262/3/4 263/3/4 264/3/4
f 264/3/4 263/3/4 265/3/4
f 266/1/4 267/1/4 268/1/4
f 268/1/4 267/1/4 269/1/4
f 270/5/4 271/5/4 272/5/4
f 272/5/4 271/5/4 273/5/4
f 274/3/4 275/3/4 276/3/4
f 276/3/4 275/3/4 277/3/4
f 278/5/4 279/5/4 280/5/4
f 280/5/4 279/5/4 281/5/4
f 281/5/4 279/5/4 282/5/4
f 283/3/4 284/3/4 285/3/4
f 285/3/4 284/3/4 286/3/4
f 287/5/4 288/5/4 289/5/4
f 289/5/4 288/5/4 290/5/4
f 291/3/4 292/3/4 293/3/4
f 293/3/4 292/3/4 294/3/4
f 295/5/4 296/5/4 297/5/4
f 297/5/4 296/5/4 298/5/4
f 299/3/4 300/3/4 301/3/4
f 301/3/4 300/3/4 302/3/4
f 303/5/4 304/5/4 305/5/4
f 305/5/4 304/5/4 306/5/4
f 307/5/4 308/5/4 310/5/4
f 308/4/4 309/4/4 310/4/4
f 310/4/4 309/4/4 311/4/4
f 307/5/4 310/5/4 312/5/4
f 310/3/4 311/3/4 312/3/4
f 312/3/4 311/3/4 313/3/4
f 307/5/4 312/5/4 314/5/4
f 314/5/4 312/5/4 315/5/4
f 307/5/4 314/5/4 316/5/4
f 316/5/4 317/5/4 318/5/4
f 316/5/4 318/5/4 320/5/4
f 307/5/4 316/5/4 320/5/4
f 318/3/4 319/3/4 321/3/4
f 320/5/4 318/5/4 321/5/4
f 321/3/4 319/3/4 322/3/4
f 325/5/5 324/5/5 323/5/5
f 326/5/5 324/5/5 325/5/5
f 333/5/6 334/5/6 335/5/6
f 327/5/6 328/5/6 337/5/6
f 328/6/6 329/6/6 337/6/6
f 329/5/6 330/5/6 338/5/6
f 337/6/6 329/6/6 338/6/6
f 330/6/6 331/6/6 339/6/6
f 338/5/6 330/5/6 339/5/6
f 331/5/6 332/5/6 340/5/6
f 339/6/6 331/6/6 340/6/6
f 335/5/6 336/5/6 341/5/6
f 340/5/6 332/5/6 344/5/6
f 337/5/6 338/5/6 344/5/6
f 338/5/6 339/5/6 344/5/6
f 332/6/6 333/6/6 344/6/6
f 339/5/6 340/5/6 344/5/6
f 333/5/6 335/5/6 345/5/6
f 344/6/6 333/6/6 345/6/6
f 341/5/6 342/5/6 345/5/6
f 335/5/6 341/5/6 345/5/6
f 337/5/6 344/5/6 346/5/6
f 344/5/6 345/5/6 346/5/6
f 346/5/6 345/5/6 347/5/6
f 342/6/6 343/6/6 348/6/6
f 347/5/6 345/5/6 348/5/6
f 345/5/6 342/5/6 348/5/6
f 348/6/6 343/6/6 349/6/6
f 346/6/6 347/6/6 351/6/6
f 337/5/6 346/5/6 351/5/6
f 349/5/6 350/5/6 352/5/6
f 351/6/6 347/6/6 352/6/6
f 348/5/6 349/5/6 352/5/6
f 347/5/6 348/5/6 352/5/6
f 352/5/6 350/5/6 353/5/6
f 353/5/6 350/5/6 354/5/6
f 353/6/6 354/6/6 355/6/6
f 337/5/6 351/5/6 358/5/6
f 351/5/6 352/5/6 358/5/6
f 352/5/6 353/5/6 358/5/6
f 358/5/6 353/5/6 359/5/6
f 359/5/6 353/5/6 360/5/6
f 360/5/6 353/5/6 361/5/6
f 359/5/6 360/5/6 362/5/6
f 362/5/6 360/5/6 363/5/6
f 356/5/6 357/5/6 364/5/6
f 363/5/6 360/5/6 366/5/6
f 360/6/6 361/6/6 366/6/6
f 361/5/6 353/5/6 367/5/6
f 366/6/6 361/6/6 367/6/6
f 367/5/6 353/5/6 368/5/6
f 368/5/6 353/5/6 369/5/6
f 355/6/6 356/6/6 370/6/6
f 369/5/6 353/5/6 370/5/6
f 353/6/6 355/6/6 370/6/6
f 364/5/6 365/5/6 371/5/6
f 370/6/6 356/6/6 371/6/6
f 356/5/6 364/5/6 371/5/6
f 371/5/6 365/5/6 372/5/6
f 337/5/6 358/5/6 374/5/6
f 358/6/6 359/6/6 374/6/6
f 359/5/6 362/5/6 375/5/6
f 374/6/6 359/6/6 375/6/6
f 362/6/6 363/6/6 376/6/6
f 375/5/6 362/5/6 376/5/6
f 374/5/6 375/5/6 376/5/6
f 367/5/6 368/5/6 377/5/6
f 376/6/6 363/6/6 377/6/6
f 363/5/6 366/5/6 377/5/6
f 366/5/6 367/5/6 377/5/6
f 369/5/6 370/5/6 378/5/6
f 372/5/6 373/5/6 378/5/6
f 371/5/6 372/5/6 378/5/6
f 370/5/6 371/5/6 378/5/6
f 377/5/6 368/5/6 380/5/6
f 376/5/6 377/5/6 380/5/6
f 380/5/6 368/5/6 381/5/6
f 327/5/6 337/5/6 382/5/6
f 374/5/6 376/5/6 382/5/6
f 337/5/6 374/5/6 382/5/6
f 376/5/6 380/5/6 382/5/6
f 382/5/6 380/5/6 383/5/6
f 383/5/6 380/5/6 384/5/6
f 384/5/6 380/5/6 385/5/6
f 381/5/6 368/5/6 386/5/6
f 368/6/6 369/6/6 386/6/6
f 378/5/6 379/5/6 387/5/6
f 386/6/6 369/6/6 387/6/6
f 369/5/6 378/5/6 387/5/6
f 387/5/6 379/5/6 388/5/6
f 385/5/6 380/5/6 389/5/6
f 380/6/6 381/6/6 389/6/6
f 381/5/6 386/5/6 390/5/6
f 389/6/6 381/6/6 390/6/6
f 386/5/6 387/5/6 390/5/6
f 327/5/6 382/5/6 391/5/6
f 382/6/6 383/6/6 391/6/6
f 383/5/6 384/5/6 392/5/6
f 391/6/6 383/6/6 392/6/6
f 390/5/6 387/5/6 393/5/6
f 389/5/6 390/5/6 393/5/6
f 393/5/6 387/5/6 394/5/6
f 384/6/6 385/6/6 395/6/6
f 392/5/6 384/5/6 395/5/6
f 391/5/6 392/5/6 395/5/6
f 385/5/6 389/5/6 396/5/6
f 395/6/6 385/6/6 396/6/6
f 389/5/6 393/5/6 396/5/6
f 394/5/6 387/5/6 397/5/6
f 387/6/6 388/6/6 397/6/6
f 388/5/6 379/5/6 398/5/6
f 397/6/6 388/6/6 398/6/6
f 398/5/6 379/5/6 399/5/6
f 399/5/6 379/5/6 400/5/6
f 391/5/6 395/5/6 401/5/6
f 395/5/6 396/5/6 401/5/6
f 327/5/6 391/5/6 401/5/6
f 401/5/6 396/5/6 402/5/6
f 402/5/6 396/5/6 403/5/6
f 403/5/6 396/5/6 404/5/6
f 396/5/6 393/5/6 405/5/6
f 404/5/6 396/5/6 405/5/6
f 393/6/6 394/6/6 406/6/6
f 405/5/6 393/5/6 406/5/6
f 394/5/6 397/5/6 407/5/6
f 406/6/6 394/6/6 407/6/6
f 398/5/6 399/5/6 407/5/6
f 397/5/6 398/5/6 407/5/6
f 407/5/6 399/5/6 408/5/6
f 399/6/6 400/6/6 409/6/6
f 408/5/6 399/5/6 409/5/6
f 409/6/6 400/6/6 410/6/6
f 400/5/6 379/5/6 411/5/6
f 410/6/6 400/6/6 411/6/6
f 401/6/6 402/6/6 412/6/6
f 327/5/6 401/5/6 412/5/6
f 402/5/6 403/5/6 413/5/6
f 412/6/6 402/6/6 413/6/6
f 403/6/6 404/6/6 414/6/6
f 413/5/6 403/5/6 414/5/6
f 404/5/6 405/5/6 415/5/6
f 414/6/6 404/6/6 415/6/6
f 405/6/6 406/6/6 416/6/6
f 415/5/6 405/5/6 416/5/6
f 407/5/6 408/5/6 417/5/6
f 416/6/6 406/6/6 417/6/6
f 406/5/6 407/5/6 417/5/6
f 414/5/6 415/5/6 418/5/6
f 412/5/6 413/5/6 418/5/6
f 416/5/6 417/5/6 418/5/6
f 415/5/6 416/5/6 418/5/6
f 413/5/6 414/5/6 418/5/6
f 418/5/6 417/5/6 419/5/6
f 417/5/6 408/5/6 420/5/6
f 419/5/6 417/5/6 420/5/6
f 420/5/6 408/5/6 421/5/6
f 419/5/6 420/5/6 422/5/6
f 420/6/6 421/6/6 422/6/6
f 421/5/6 408/5/6 423/5/6
f 422/6/6 421/6/6 423/6/6
f 409/6/6 410/6/6 424/6/6
f 423/5/6 408/5/6 424/5/6
f 422/5/6 423/5/6 424/5/6
f 408/6/6 409/6/6 424/6/6
f 410/5/6 411/5/6 425/5/6
f 424/6/6 410/6/6 425/6/6
f 418/6/6 419/6/6 426/6/6
f 412/5/6 418/5/6 426/5/6
f 419/5/6 422/5/6 427/5/6
f 426/6/6 419/6/6 427/6/6
f 424/5/6 425/5/6 427/5/6
f 422/5/6 424/5/6 427/5/6
f 425/5/6 411/5/6 428/5/6
f 427/5/6 425/5/6 428/5/6
f 411/5/6 379/5/6 429/5/6
f 428/5/6 411/5/6 429/5/6
f 412/5/6 426/5/6 430/5/6
f 426/5/6 427/5/6 430/5/6
f 427/5/6 428/5/6 430/5/6
f 430/5/6 428/5/6 431/5/6
f 431/5/6 428/5/6 432/5/6
f 432/5/6 428/5/6 433/5/6
f 327/5/6 412/5/6 434/5/6
f 412/5/6 430/5/6 434/5/6
f 434/5/6 430/5/6 435/5/6
f 432/6/6 433/6/6 436/6/6
f 431/5/6 432/5/6 436/5/6
f 433/5/6 428/5/6 437/5/6
f 436/6/6 433/6/6 437/6/6
f 437/5/6 428/5/6 438/5/6
f 438/5/6 428/5/6 439/5/6
f 436/5/6 437/5/6 440/5/6
f 438/6/6 439/6/6 440/6/6
f 437/5/6 438/5/6 440/5/6
f 439/5/6 428/5/6 441/5/6
f 440/6/6 439/6/6 441/6/6
f 428/6/6 429/6/6 442/6/6
f 441/5/6 428/5/6 442/5/6
f 429/5/6 379/5/6 443/5/6
f 442/6/6 429/6/6 443/6/6
f 435/5/6 430/5/6 444/5/6
f 430/6/6 431/6/6 444/6/6
f 441/5/6 442/5/6 445/5/6
f 444/6/6 431/6/6 445/6/6
f 440/5/6 441/5/6 445/5/6
f 431/5/6 436/5/6 445/5/6
f 436/5/6 440/5/6 445/5/6
f 442/5/6 443/5/6 445/5/6
f 445/5/6 443/5/6 446/5/6
f 446/5/6 443/5/6 447/5/6
f 444/5/6 445/5/6 448/5/6
f 445/5/6 446/5/6 448/5/6
f 446/6/6 447/6/6 448/6/6
f 447/5/6 443/5/6 449/5/6
f 448/6/6 447/6/6 449/6/6
f 435/5/6 444/5/6 450/5/6
f 444/5/6 448/5/6 450/5/6
f 448/5/6 449/5/6 450/5/6
f 449/5/6 443/5/6 451/5/6
f 450/5/6 449/5/6 451/5/6
f 443/5/6 379/5/6 451/5/6
f 452/5/6 453/5/6 454/5/6
f 454/5/6 453/5/6 455/5/6
f 455/5/6 453/5/6 456/5/6
f 456/5/6 457/5/6 458/5/6
f 455/5/6 456/5/6 458/5/6
f 458/5/6 457/5/6 459/5/6
f 459/5/6 457/5/6 460/5/6
f 459/5/6 460/5/6 462/5/6
f 460/5/6 461/5/6 462/5/6
f 462/5/6 461/5/6 463/5/6
f 463/5/6 461/5/6 464/5/6
f 463/5/6 464/5/6 466/5/6
f 464/5/6 465/5/6 466/5/6
f 466/5/6 465/5/6 467/5/6
f 467/5/6 465/5/6 468/5/6
f 467/5/6 468/5/6 470/5/6
f 468/5/6 469/5/6 470/5/6
f 470/5/6 469/5/6 471/5/6
f 471/5/6 469/5/6 472/5/6
f 471/5/6 472/5/6 474/5/6
f 472/5/6 473/5/6 474/5/6
f 474/5/6 473/5/6 475/5/6
f 475/5/6 473/5/6 476/5/6
f 475/5/6 476/5/6 478/5/6
f 476/5/6 477/5/6 478/5/6
f 478/5/6 477/5/6 479/5/6
f 479/5/6 477/5/6 480/5/6
f 479/5/6 480/5/6 482/5/6
f 480/5/6 481/5/6 482/5/6
f 482/5/6 481/5/6 483/5/6
f 483/5/6 481/5/6 484/5/6
f 483/5/6 484/5/6 485/5/6
f 483/5/6 485/5/6 486/5/6
f 487/5/6 488/5/6 489/5/6
f 489/5/6 488/5/6 490/5/6
f 490/5/6 488/5/6 491/5/6
f 491/5/6 488/5/6 492/5/6
f 483/5/6 486/5/6 493/5/6
f 493/5/6 486/5/6 494/5/6
f 495/3/6 496/3/6 497/3/6
f 497/3/6 496/3/6 498/3/6
f 498/3/6 496/3/6 499/3/6
f 499/3/6 496/3/6 500/3/6
f 500/3/6 496/3/6 501/3/6
f 501/3/6 496/3/6 502/3/6
f 499/4/6 500/4/6 503/4/6
f 500/3/6 501/3/6 503/3/6
f 501/4/6 502/4/6 504/4/6
f 503/3/6 501/3/6 504/3/6
f 498/3/6 499/3/6 505/3/6
f 505/3/6 499/3/6 506/3/6
f 504/4/6 502/4/6 507/4/6
f 507/4/6 502/4/6 508/4/6
f 499/4/6 503/4/6 509/4/6
f 508/4/6 502/4/6 511/4/6
f 506/3/6 499/3/6 512/3/6
f 512/3/6 499/3/6 513/3/6
f 499/4/6 509/4/6 514/4/6
f 513/3/6 499/3/6 514/3/6
f 509/3/6 510/3/6 515/3/6
f 514/4/6 509/4/6 515/4/6
f 511/4/6 502/4/6 517/4/6
f 502/3/6 496/3/6 518/3/6
f 517/4/6 502/4/6 518/4/6
f 515/3/6 510/3/6 519/3/6
f 513/3/6 514/3/6 519/3/6
f 514/3/6 515/3/6 519/3/6
f 516/3/6 517/3/6 521/3/6
f 517/3/6 518/3/6 521/3/6
f 519/3/6 520/3/6 522/3/6
f 513/3/6 519/3/6 522/3/6
f 522/3/6 520/3/6 523/3/6
f 523/3/6 520/3/6 524/3/6
f 524/3/6 520/3/6 525/3/6
f 525/3/6 520/3/6 526/3/6
f 521/3/6 518/3/6 527/3/6
f 518/3/6 496/3/6 528/3/6
f 527/3/6 518/3/6 528/3/6
f 523/3/6 524/3/6 529/3/6
f 524/4/6 525/4/6 529/4/6
f 525/3/6 526/3/6 530/3/6
f 529/4/6 525/4/6 530/4/6
f 523/3/6 529/3/6 531/3/6
f 529/3/6 530/3/6 531/3/6
f 531/3/6 530/3/6 532/3/6
f 532/3/6 530/3/6 533/3/6
f 530/3/6 526/3/6 534/3/6
f 533/3/6 530/3/6 534/3/6
f 526/4/6 527/4/6 535/4/6
f 534/3/6 526/3/6 535/3/6
f 527/4/6 528/4/6 535/4/6
f 535/4/6 528/4/6 536/4/6
f 534/3/6 535/3/6 537/3/6
f 535/3/6 536/3/6 537/3/6
f 537/3/6 536/3/6 538/3/6
f 538/3/6 536/3/6 539/3/6
f 536/4/6 528/4/6 540/4/6
f 539/3/6 536/3/6 540/3/6
f 540/4/6 528/4/6 541/4/6
f 541/4/6 528/4/6 542/4/6
f 541/3/6 542/3/6 543/3/6
f 543/3/6 542/3/6 544/3/6
f 543/4/6 544/4/6 545/4/6
f 545/4/6 544/4/6 546/4/6
f 545/3/6 546/3/6 547/3/6
f 547/3/6 546/3/6 548/3/6
f 545/3/6 547/3/6 551/3/6
f 547/4/6 548/4/6 551/4/6
f 551/4/6 548/4/6 552/4/6
f 549/3/6 550/3/6 553/3/6
f 553/3/6 550/3/6 554/3/6
f 553/4/6 554/4/6 555/4/6
f 554/3/6 550/3/6 556/3/6
f 555/4/6 554/4/6 556/4/6
f 556/3/6 550/3/6 557/3/6
f 545/3/6 551/3/6 558/3/6
f 551/3/6 552/3/6 558/3/6
f 558/3/6 552/3/6 559/3/6
f 560/1/6 561/1/6 564/1/6
f 562/1/6 563/1/6 565/1/6
f 565/1/6 563/1/6 566/1/6
f 566/1/6 563/1/6 567/1/6
f 560/1/6 564/1/6 569/1/6
f 564/1/6 565/1/6 569/1/6
f 569/1/6 565/1/6 570/1/6
f 567/1/6 568/1/6 571/1/6
f 571/1/6 568/1/6 572/1/6
f 571/2/6 572/2/6 575/2/6
f 575/2/6 572/2/6 576/2/6
f 573/1/6 574/1/6 577/1/6
f 574/2/6 575/2/6 578/2/6
f 577/1/6 574/1/6 578/1/6
f 578/2/6 575/2/6 579/2/6
f 578/1/6 579/1/6 580/1/6
f 580/1/6 579/1/6 581/1/6
f 582/2/6 583/2/6 584/2/6
f 584/2/6 583/2/6 585/2/6
f 586/2/6 587/2/6 589/2/6
f 589/2/6 587/2/6 590/2/6
f 588/2/6 589/2/6 591/2/6
f 589/1/6 590/1/6 592/1/6
f 591/2/6 589/2/6 592/2/6
f 592/1/6 590/1/6 593/1/6
f 594/1/6 595/1/6 596/1/6
f 596/1/6 595/1/6 597/1/6
