# MagicaVoxel @ Ephtracy

# group
o 

# material
mtllib Tale5.mtl
usemtl palette

# normals
vn -1 0 0
vn 1 0 0
vn 0 0 1
vn 0 0 -1
vn 0 -1 0
vn 0 1 0

# texcoords
vt 0.908203 0.5
vt 0.912109 0.5
vt 0.916016 0.5
vt 0.939453 0.5

# verts
v -2 0 2
v -2 0 1.8
v -2 0 -2
v -2 0.4 1.8
v -2 0.4 -1.1
v -2 0.4 -1.9
v -2 0.4 -2
v -2 0.5 2
v -2 0.5 -1.1
v -2 0.5 -1.9
v -2 0.5 -2
v 2 0 2
v 2 0 -2
v 2 0.4 2
v 2 0.4 1.1
v 2 0.5 2
v 2 0.5 1.1
v 2 0.5 -2
v -2 0 2
v -2 0.5 2
v 1 0.4 2
v 1 0.5 2
v 2 0 2
v 2 0.4 2
v 2 0.5 2
v -2 0 -2
v -2 0.4 -2
v -2 0.5 -2
v 1.9 0 -2
v 1.9 0.4 -2
v 2 0 -2
v 2 0.5 -2
v -2 0 2
v 2 0 2
v -2 0 1.8
v 1.9 0 1.8
v -2 0 -2
v 1.9 0 -2
v 2 0 -2
v -2 0.5 2
v 1 0.5 2
v 2 0.5 2
v -1.4 0.5 1.9
v -0.8 0.5 1.9
v 0.9 0.5 1.8
v 1 0.5 1.8
v 1.1 0.5 1.8
v 0.9 0.5 1.6
v 1 0.5 1.6
v 1.1 0.5 1.6
v -1.3 0.5 1.5
v -1.1 0.5 1.5
v -1.4 0.5 1.3
v -1.3 0.5 1.3
v -1.1 0.5 1.3
v -0.8 0.5 1.3
v 2.38419e-007 0.5 1.2
v 1 0.5 1.2
v 1 0.5 1.1
v 2 0.5 1.1
v -1 0.5 0.9
v -0.8 0.5 0.9
v 0.3 0.5 0.9
v 0.7 0.5 0.9
v -1 0.5 0.7
v -0.8 0.5 0.7
v 0.3 0.5 0.5
v 0.7 0.5 0.5
v -1.7 0.5 0.4
v -0.3 0.5 0.4
v 1.1 0.5 0.3
v 1.9 0.5 0.3
v 2.38419e-007 0.5 0.2
v 1 0.5 0.2
v -0.3 0.5 0.0999999
v 0.1 0.5 0.0999999
v 1.2 0.5 0.0999999
v 1.4 0.5 0.0999999
v 1.2 0.5 -0.1
v 1.4 0.5 -0.1
v -1 0.5 -0.4
v -0.8 0.5 -0.4
v 0.2 0.5 -0.4
v 1.1 0.5 -0.4
v 1.4 0.5 -0.5
v 1.9 0.5 -0.5
v -1 0.5 -0.6
v -0.8 0.5 -0.6
v -0.3 0.5 -0.7
v 0.1 0.5 -0.7
v 0.7 0.5 -0.9
v 0.9 0.5 -0.9
v -1.7 0.5 -1
v -0.3 0.5 -1
v -2 0.5 -1.1
v -1.3 0.5 -1.1
v 0.7 0.5 -1.1
v 0.9 0.5 -1.1
v -0.8 0.5 -1.3
v -0.6 0.5 -1.3
v -0.8 0.5 -1.5
v -0.6 0.5 -1.5
v 0.2 0.5 -1.6
v 1.4 0.5 -1.6
v -2 0.5 -1.9
v -1.3 0.5 -1.9
v -2 0.5 -2
v 2 0.5 -2

# faces
f 4/1/1 2/1/1 1/1/1
f 4/4/1 3/4/1 2/4/1
f 5/4/1 3/4/1 4/4/1
f 6/4/1 3/4/1 5/4/1
f 7/4/1 3/4/1 6/4/1
f 8/1/1 4/1/1 1/1/1
f 8/1/1 5/1/1 4/1/1
f 9/2/1 6/2/1 5/2/1
f 9/1/1 5/1/1 8/1/1
f 10/1/1 7/1/1 6/1/1
f 10/2/1 6/2/1 9/2/1
f 11/1/1 7/1/1 10/1/1
f 12/1/2 13/1/2 14/1/2
f 14/1/2 13/1/2 15/1/2
f 14/2/2 15/2/2 16/2/2
f 15/1/2 13/1/2 17/1/2
f 16/2/2 15/2/2 17/2/2
f 17/1/2 13/1/2 18/1/2
f 21/1/3 20/1/3 19/1/3
f 22/1/3 20/1/3 21/1/3
f 23/1/3 21/1/3 19/1/3
f 24/2/3 22/2/3 21/2/3
f 24/1/3 21/1/3 23/1/3
f 25/2/3 22/2/3 24/2/3
f 26/4/4 27/4/4 29/4/4
f 27/1/4 28/1/4 30/1/4
f 29/4/4 27/4/4 30/4/4
f 29/1/4 30/1/4 31/1/4
f 30/1/4 28/1/4 32/1/4
f 31/1/4 30/1/4 32/1/4
f 35/1/5 34/1/5 33/1/5
f 36/1/5 34/1/5 35/1/5
f 37/4/5 36/4/5 35/4/5
f 38/1/5 34/1/5 36/1/5
f 38/4/5 36/4/5 37/4/5
f 39/1/5 34/1/5 38/1/5
f 40/1/6 41/1/6 43/1/6
f 43/1/6 41/1/6 44/1/6
f 44/1/6 41/1/6 45/1/6
f 41/2/6 42/2/6 46/2/6
f 45/1/6 41/1/6 46/1/6
f 46/2/6 42/2/6 47/2/6
f 44/1/6 45/1/6 48/1/6
f 45/3/6 46/3/6 48/3/6
f 46/3/6 47/3/6 48/3/6
f 48/3/6 47/3/6 49/3/6
f 47/2/6 42/2/6 50/2/6
f 49/3/6 47/3/6 50/3/6
f 43/2/6 44/2/6 51/2/6
f 51/2/6 44/2/6 52/2/6
f 40/1/6 43/1/6 53/1/6
f 43/2/6 51/2/6 53/2/6
f 51/3/6 52/3/6 54/3/6
f 53/2/6 51/2/6 54/2/6
f 52/2/6 44/2/6 55/2/6
f 54/3/6 52/3/6 55/3/6
f 48/1/6 49/1/6 56/1/6
f 55/2/6 44/2/6 56/2/6
f 44/1/6 48/1/6 56/1/6
f 54/1/6 55/1/6 57/1/6
f 56/1/6 49/1/6 57/1/6
f 55/1/6 56/1/6 57/1/6
f 53/1/6 54/1/6 57/1/6
f 49/2/6 50/2/6 58/2/6
f 57/1/6 49/1/6 58/1/6
f 57/2/6 58/2/6 59/2/6
f 58/2/6 50/2/6 59/2/6
f 50/2/6 42/2/6 60/2/6
f 59/2/6 50/2/6 60/2/6
f 53/1/6 57/1/6 61/1/6
f 61/1/6 57/1/6 62/1/6
f 57/2/6 59/2/6 63/2/6
f 63/2/6 59/2/6 64/2/6
f 53/1/6 61/1/6 65/1/6
f 61/2/6 62/2/6 65/2/6
f 62/1/6 57/1/6 66/1/6
f 65/2/6 62/2/6 66/2/6
f 63/3/6 64/3/6 67/3/6
f 57/2/6 63/2/6 67/2/6
f 64/2/6 59/2/6 68/2/6
f 67/3/6 64/3/6 68/3/6
f 40/1/6 53/1/6 69/1/6
f 53/1/6 65/1/6 69/1/6
f 65/1/6 66/1/6 69/1/6
f 66/1/6 57/1/6 70/1/6
f 69/1/6 66/1/6 70/1/6
f 59/1/6 60/1/6 71/1/6
f 71/1/6 60/1/6 72/1/6
f 67/2/6 68/2/6 73/2/6
f 70/1/6 57/1/6 73/1/6
f 57/2/6 67/2/6 73/2/6
f 68/2/6 59/2/6 74/2/6
f 73/2/6 68/2/6 74/2/6
f 59/1/6 71/1/6 74/1/6
f 70/1/6 73/1/6 75/1/6
f 69/2/6 70/2/6 75/2/6
f 73/1/6 74/1/6 75/1/6
f 75/1/6 74/1/6 76/1/6
f 71/2/6 72/2/6 77/2/6
f 77/2/6 72/2/6 78/2/6
f 71/2/6 77/2/6 79/2/6
f 77/3/6 78/3/6 79/3/6
f 78/2/6 72/2/6 80/2/6
f 79/3/6 78/3/6 80/3/6
f 69/2/6 75/2/6 81/2/6
f 75/2/6 76/2/6 81/2/6
f 81/2/6 76/2/6 82/2/6
f 76/1/6 74/1/6 83/1/6
f 74/1/6 71/1/6 84/1/6
f 83/1/6 74/1/6 84/1/6
f 79/2/6 80/2/6 84/2/6
f 71/2/6 79/2/6 84/2/6
f 80/2/6 72/2/6 85/2/6
f 84/2/6 80/2/6 85/2/6
f 83/2/6 84/2/6 85/2/6
f 72/1/6 60/1/6 86/1/6
f 85/2/6 72/2/6 86/2/6
f 69/2/6 81/2/6 87/2/6
f 81/3/6 82/3/6 87/3/6
f 82/2/6 76/2/6 88/2/6
f 87/3/6 82/3/6 88/3/6
f 87/2/6 88/2/6 89/2/6
f 88/2/6 76/2/6 89/2/6
f 76/1/6 83/1/6 90/1/6
f 89/2/6 76/2/6 90/2/6
f 83/2/6 85/2/6 91/2/6
f 91/2/6 85/2/6 92/2/6
f 87/2/6 89/2/6 93/2/6
f 69/2/6 87/2/6 93/2/6
f 40/1/6 69/1/6 93/1/6
f 89/1/6 90/1/6 94/1/6
f 93/2/6 89/2/6 94/2/6
f 40/1/6 93/1/6 95/1/6
f 93/1/6 94/1/6 95/1/6
f 95/1/6 94/1/6 96/1/6
f 91/3/6 92/3/6 97/3/6
f 83/2/6 91/2/6 97/2/6
f 92/2/6 85/2/6 98/2/6
f 97/3/6 92/3/6 98/3/6
f 96/1/6 94/1/6 99/1/6
f 99/1/6 94/1/6 100/1/6
f 96/1/6 99/1/6 101/1/6
f 99/2/6 100/2/6 101/2/6
f 100/1/6 94/1/6 102/1/6
f 101/2/6 100/2/6 102/2/6
f 83/2/6 97/2/6 103/2/6
f 102/1/6 94/1/6 103/1/6
f 101/1/6 102/1/6 103/1/6
f 90/1/6 83/1/6 103/1/6
f 97/2/6 98/2/6 103/2/6
f 94/1/6 90/1/6 103/1/6
f 98/2/6 85/2/6 104/2/6
f 103/2/6 98/2/6 104/2/6
f 85/1/6 86/1/6 104/1/6
f 95/2/6 96/2/6 105/2/6
f 96/1/6 101/1/6 106/1/6
f 105/2/6 96/2/6 106/2/6
f 101/1/6 103/1/6 106/1/6
f 103/1/6 104/1/6 106/1/6
f 105/1/6 106/1/6 107/1/6
f 86/1/6 60/1/6 108/1/6
f 107/1/6 106/1/6 108/1/6
f 104/1/6 86/1/6 108/1/6
f 106/1/6 104/1/6 108/1/6
