# MagicaVoxel @ Ephtracy

# group
o 

# material
mtllib Tale4.mtl
usemtl palette

# normals
vn -1 0 0
vn 1 0 0
vn 0 0 1
vn 0 0 -1
vn 0 -1 0
vn 0 1 0

# texcoords
vt 0.908203 0.5
vt 0.912109 0.5
vt 0.916016 0.5
vt 0.939453 0.5

# verts
v -2 0 2
v -2 0 1.8
v -2 0 -2
v -2 0.4 1.8
v -2 0.4 -1.1
v -2 0.4 -1.9
v -2 0.4 -2
v -2 0.5 2
v -2 0.5 -1.1
v -2 0.5 -1.9
v -2 0.5 -2
v 2 0 2
v 2 0 1.8
v 2 0 -2
v 2 0.4 2
v 2 0.4 1.8
v 2 0.4 1.1
v 2 0.4 -2
v 2 0.5 2
v 2 0.5 1.1
v 2 0.5 -2
v -2 0 2
v -2 0.5 2
v 1 0.4 2
v 1 0.5 2
v 2 0 2
v 2 0.4 2
v 2 0.5 2
v -2 0 -2
v -2 0.4 -2
v -2 0.5 -2
v 2 0 -2
v 2 0.4 -2
v 2 0.5 -2
v -2 0 2
v 2 0 2
v -2 0 1.8
v 2 0 1.8
v -2 0 -2
v 2 0 -2
v -2 0.5 2
v 1 0.5 2
v 2 0.5 2
v -1.4 0.5 1.9
v -0.8 0.5 1.9
v 0.9 0.5 1.8
v 1 0.5 1.8
v 1.1 0.5 1.8
v 0.9 0.5 1.6
v 1 0.5 1.6
v 1.1 0.5 1.6
v -1.3 0.5 1.5
v -1.1 0.5 1.5
v -1.4 0.5 1.3
v -1.3 0.5 1.3
v -1.1 0.5 1.3
v -0.8 0.5 1.3
v 2.38419e-007 0.5 1.2
v 1 0.5 1.2
v 1 0.5 1.1
v 2 0.5 1.1
v -1 0.5 0.9
v -0.8 0.5 0.9
v 0.3 0.5 0.9
v 0.7 0.5 0.9
v -1 0.5 0.7
v -0.8 0.5 0.7
v 0.3 0.5 0.5
v 0.7 0.5 0.5
v -1.7 0.5 0.4
v -0.3 0.5 0.4
v 1.1 0.5 0.3
v 1.9 0.5 0.3
v 2.38419e-007 0.5 0.2
v 1 0.5 0.2
v -0.3 0.5 0.0999999
v 0.1 0.5 0.0999999
v 1.2 0.5 0.0999999
v 1.4 0.5 0.0999999
v 1.2 0.5 -0.1
v 1.4 0.5 -0.1
v -1 0.5 -0.4
v -0.8 0.5 -0.4
v 0.2 0.5 -0.4
v 1.1 0.5 -0.4
v 1.4 0.5 -0.5
v 1.9 0.5 -0.5
v -1 0.5 -0.6
v -0.8 0.5 -0.6
v -0.3 0.5 -0.7
v 0.1 0.5 -0.7
v 0.7 0.5 -0.9
v 0.9 0.5 -0.9
v -1.7 0.5 -1
v -0.3 0.5 -1
v -2 0.5 -1.1
v -1.3 0.5 -1.1
v 0.7 0.5 -1.1
v 0.9 0.5 -1.1
v -0.8 0.5 -1.3
v -0.6 0.5 -1.3
v -0.8 0.5 -1.5
v -0.6 0.5 -1.5
v 0.2 0.5 -1.6
v 1.4 0.5 -1.6
v -2 0.5 -1.9
v -1.3 0.5 -1.9
v -2 0.5 -2
v 2 0.5 -2

# faces
f 4/1/1 2/1/1 1/1/1
f 4/4/1 3/4/1 2/4/1
f 5/4/1 3/4/1 4/4/1
f 6/4/1 3/4/1 5/4/1
f 7/4/1 3/4/1 6/4/1
f 8/1/1 4/1/1 1/1/1
f 8/1/1 5/1/1 4/1/1
f 9/2/1 6/2/1 5/2/1
f 9/1/1 5/1/1 8/1/1
f 10/1/1 7/1/1 6/1/1
f 10/2/1 6/2/1 9/2/1
f 11/1/1 7/1/1 10/1/1
f 12/1/2 13/1/2 15/1/2
f 13/4/2 14/4/2 16/4/2
f 15/1/2 13/1/2 16/1/2
f 16/4/2 14/4/2 17/4/2
f 17/4/2 14/4/2 18/4/2
f 15/2/2 16/2/2 19/2/2
f 16/2/2 17/2/2 19/2/2
f 17/1/2 18/1/2 20/1/2
f 19/2/2 17/2/2 20/2/2
f 20/1/2 18/1/2 21/1/2
f 24/1/3 23/1/3 22/1/3
f 25/1/3 23/1/3 24/1/3
f 26/1/3 24/1/3 22/1/3
f 27/2/3 25/2/3 24/2/3
f 27/1/3 24/1/3 26/1/3
f 28/2/3 25/2/3 27/2/3
f 29/4/4 30/4/4 32/4/4
f 30/1/4 31/1/4 33/1/4
f 32/4/4 30/4/4 33/4/4
f 33/1/4 31/1/4 34/1/4
f 37/1/5 36/1/5 35/1/5
f 38/1/5 36/1/5 37/1/5
f 39/4/5 38/4/5 37/4/5
f 40/4/5 38/4/5 39/4/5
f 41/1/6 42/1/6 44/1/6
f 44/1/6 42/1/6 45/1/6
f 45/1/6 42/1/6 46/1/6
f 42/2/6 43/2/6 47/2/6
f 46/1/6 42/1/6 47/1/6
f 47/2/6 43/2/6 48/2/6
f 45/1/6 46/1/6 49/1/6
f 46/3/6 47/3/6 49/3/6
f 47/3/6 48/3/6 49/3/6
f 49/3/6 48/3/6 50/3/6
f 48/2/6 43/2/6 51/2/6
f 50/3/6 48/3/6 51/3/6
f 44/2/6 45/2/6 52/2/6
f 52/2/6 45/2/6 53/2/6
f 41/1/6 44/1/6 54/1/6
f 44/2/6 52/2/6 54/2/6
f 52/3/6 53/3/6 55/3/6
f 54/2/6 52/2/6 55/2/6
f 53/2/6 45/2/6 56/2/6
f 55/3/6 53/3/6 56/3/6
f 49/1/6 50/1/6 57/1/6
f 56/2/6 45/2/6 57/2/6
f 45/1/6 49/1/6 57/1/6
f 55/1/6 56/1/6 58/1/6
f 57/1/6 50/1/6 58/1/6
f 56/1/6 57/1/6 58/1/6
f 54/1/6 55/1/6 58/1/6
f 50/2/6 51/2/6 59/2/6
f 58/1/6 50/1/6 59/1/6
f 58/2/6 59/2/6 60/2/6
f 59/2/6 51/2/6 60/2/6
f 51/2/6 43/2/6 61/2/6
f 60/2/6 51/2/6 61/2/6
f 54/1/6 58/1/6 62/1/6
f 62/1/6 58/1/6 63/1/6
f 58/2/6 60/2/6 64/2/6
f 64/2/6 60/2/6 65/2/6
f 54/1/6 62/1/6 66/1/6
f 62/2/6 63/2/6 66/2/6
f 63/1/6 58/1/6 67/1/6
f 66/2/6 63/2/6 67/2/6
f 64/3/6 65/3/6 68/3/6
f 58/2/6 64/2/6 68/2/6
f 65/2/6 60/2/6 69/2/6
f 68/3/6 65/3/6 69/3/6
f 41/1/6 54/1/6 70/1/6
f 54/1/6 66/1/6 70/1/6
f 66/1/6 67/1/6 70/1/6
f 67/1/6 58/1/6 71/1/6
f 70/1/6 67/1/6 71/1/6
f 60/1/6 61/1/6 72/1/6
f 72/1/6 61/1/6 73/1/6
f 68/2/6 69/2/6 74/2/6
f 71/1/6 58/1/6 74/1/6
f 58/2/6 68/2/6 74/2/6
f 69/2/6 60/2/6 75/2/6
f 74/2/6 69/2/6 75/2/6
f 60/1/6 72/1/6 75/1/6
f 71/1/6 74/1/6 76/1/6
f 70/2/6 71/2/6 76/2/6
f 74/1/6 75/1/6 76/1/6
f 76/1/6 75/1/6 77/1/6
f 72/2/6 73/2/6 78/2/6
f 78/2/6 73/2/6 79/2/6
f 72/2/6 78/2/6 80/2/6
f 78/3/6 79/3/6 80/3/6
f 79/2/6 73/2/6 81/2/6
f 80/3/6 79/3/6 81/3/6
f 70/2/6 76/2/6 82/2/6
f 76/2/6 77/2/6 82/2/6
f 82/2/6 77/2/6 83/2/6
f 77/1/6 75/1/6 84/1/6
f 75/1/6 72/1/6 85/1/6
f 84/1/6 75/1/6 85/1/6
f 80/2/6 81/2/6 85/2/6
f 72/2/6 80/2/6 85/2/6
f 81/2/6 73/2/6 86/2/6
f 85/2/6 81/2/6 86/2/6
f 84/2/6 85/2/6 86/2/6
f 73/1/6 61/1/6 87/1/6
f 86/2/6 73/2/6 87/2/6
f 70/2/6 82/2/6 88/2/6
f 82/3/6 83/3/6 88/3/6
f 83/2/6 77/2/6 89/2/6
f 88/3/6 83/3/6 89/3/6
f 88/2/6 89/2/6 90/2/6
f 89/2/6 77/2/6 90/2/6
f 77/1/6 84/1/6 91/1/6
f 90/2/6 77/2/6 91/2/6
f 84/2/6 86/2/6 92/2/6
f 92/2/6 86/2/6 93/2/6
f 88/2/6 90/2/6 94/2/6
f 70/2/6 88/2/6 94/2/6
f 41/1/6 70/1/6 94/1/6
f 90/1/6 91/1/6 95/1/6
f 94/2/6 90/2/6 95/2/6
f 41/1/6 94/1/6 96/1/6
f 94/1/6 95/1/6 96/1/6
f 96/1/6 95/1/6 97/1/6
f 92/3/6 93/3/6 98/3/6
f 84/2/6 92/2/6 98/2/6
f 93/2/6 86/2/6 99/2/6
f 98/3/6 93/3/6 99/3/6
f 97/1/6 95/1/6 100/1/6
f 100/1/6 95/1/6 101/1/6
f 97/1/6 100/1/6 102/1/6
f 100/2/6 101/2/6 102/2/6
f 101/1/6 95/1/6 103/1/6
f 102/2/6 101/2/6 103/2/6
f 84/2/6 98/2/6 104/2/6
f 103/1/6 95/1/6 104/1/6
f 102/1/6 103/1/6 104/1/6
f 91/1/6 84/1/6 104/1/6
f 98/2/6 99/2/6 104/2/6
f 95/1/6 91/1/6 104/1/6
f 99/2/6 86/2/6 105/2/6
f 104/2/6 99/2/6 105/2/6
f 86/1/6 87/1/6 105/1/6
f 96/2/6 97/2/6 106/2/6
f 97/1/6 102/1/6 107/1/6
f 106/2/6 97/2/6 107/2/6
f 102/1/6 104/1/6 107/1/6
f 104/1/6 105/1/6 107/1/6
f 106/1/6 107/1/6 108/1/6
f 87/1/6 61/1/6 109/1/6
f 108/1/6 107/1/6 109/1/6
f 105/1/6 87/1/6 109/1/6
f 107/1/6 105/1/6 109/1/6
