# MagicaVoxel @ Ephtracy

# group
o 

# material
mtllib TaleDoroga1.mtl
usemtl palette

# normals
vn -1 0 0
vn 1 0 0
vn 0 0 1
vn 0 0 -1
vn 0 -1 0
vn 0 1 0

# texcoords
vt 0.908203 0.5
vt 0.912109 0.5
vt 0.970703 0.5
vt 0.974609 0.5

# verts
v -2 0 2
v -2 0 -2
v -2 0.4 2
v -2 0.4 1.7
v -2 0.4 1.3
v -2 0.4 1
v -2 0.4 0.7
v -2 0.4 0.2
v -2 0.4 -0.2
v -2 0.4 -1
v -2 0.4 -1.3
v -2 0.4 -2
v -2 0.5 2
v -2 0.5 1.7
v -2 0.5 1.3
v -2 0.5 1
v -2 0.5 0.7
v -2 0.5 0.2
v -2 0.5 -0.2
v -2 0.5 -1
v -2 0.5 -1.3
v -2 0.5 -2
v 1.6 0.3 2
v 1.6 0.3 -2
v 1.6 0.4 2
v 1.6 0.4 -2
v 1.8 0.4 2
v 1.8 0.4 1.2
v 1.8 0.4 -0.2
v 1.8 0.4 -0.9
v 1.8 0.4 -1.2
v 1.8 0.4 -2
v 1.8 0.5 2
v 1.8 0.5 1.2
v 1.8 0.5 -0.2
v 1.8 0.5 -0.9
v 1.8 0.5 -1.2
v 1.8 0.5 -2
v -1.8 0.4 2
v -1.8 0.4 0.2
v -1.8 0.4 -0.2
v -1.8 0.4 -1
v -1.8 0.4 -1.3
v -1.8 0.4 -2
v -1.8 0.5 2
v -1.8 0.5 0.2
v -1.8 0.5 -0.2
v -1.8 0.5 -1
v -1.8 0.5 -1.3
v -1.8 0.5 -2
v -1.6 0.3 2
v -1.6 0.3 -2
v -1.6 0.4 2
v -1.6 0.4 -2
v 2 0 2
v 2 0 -2
v 2 0.4 2
v 2 0.4 1.2
v 2 0.4 -0.2
v 2 0.4 -0.9
v 2 0.4 -1.2
v 2 0.4 -1.5
v 2 0.4 -1.7
v 2 0.4 -2
v 2 0.5 2
v 2 0.5 1.2
v 2 0.5 -0.2
v 2 0.5 -0.9
v 2 0.5 -1.2
v 2 0.5 -1.5
v 2 0.5 -1.7
v 2 0.5 -2
v -2 0 2
v -2 0.4 2
v -2 0.5 2
v -1.8 0.4 2
v -1.8 0.5 2
v -1.6 0.3 2
v -1.6 0.4 2
v 0.1 0.2 2
v 0.1 0.3 2
v 0.5 0.2 2
v 0.5 0.3 2
v 1.6 0.3 2
v 1.6 0.4 2
v 1.8 0.4 2
v 1.8 0.5 2
v 2 0 2
v 2 0.4 2
v 2 0.5 2
v -2 0 -2
v -2 0.4 -2
v -2 0.5 -2
v -1.8 0.4 -2
v -1.8 0.5 -2
v -1.6 0.3 -2
v -1.6 0.4 -2
v 1.6 0.3 -2
v 1.6 0.4 -2
v 1.8 0.4 -2
v 1.8 0.5 -2
v 2 0 -2
v 2 0.4 -2
v 2 0.5 -2
v -2 0 2
v 2 0 2
v -2 0 -2
v 2 0 -2
v -1.6 0.3 2
v 0.1 0.3 2
v 0.5 0.3 2
v 1.6 0.3 2
v 0.1 0.3 1.8
v 0.5 0.3 1.8
v -1.4 0.3 1.7
v -1.2 0.3 1.7
v 0.1 0.3 1.7
v 0.2 0.3 1.7
v -0.9 0.3 1.6
v -0.5 0.3 1.6
v 0.6 0.3 1.6
v 1.1 0.3 1.6
v -1.4 0.3 1.3
v -1.2 0.3 1.3
v -0.9 0.3 1.3
v -0.5 0.3 1.3
v 0.1 0.3 1.2
v 0.2 0.3 1.2
v 1.3 0.3 1.2
v 1.4 0.3 1.2
v -0.8 0.3 1.1
v -0.7 0.3 1.1
v 0.6 0.3 1.1
v 1.1 0.3 1.1
v -0.8 0.3 1
v -0.7 0.3 1
v 0.8 0.3 1
v 1 0.3 1
v 1.3 0.3 0.9
v 1.4 0.3 0.9
v -1.1 0.3 0.8
v -0.8 0.3 0.8
v 2.38419e-007 0.3 0.8
v 0.2 0.3 0.8
v -0.6 0.3 0.7
v -0.4 0.3 0.7
v 2.38419e-007 0.3 0.5
v 0.2 0.3 0.5
v 0.3 0.3 0.5
v 0.5 0.3 0.5
v 0.8 0.3 0.5
v 1 0.3 0.5
v -1.1 0.3 0.4
v -0.8 0.3 0.4
v -0.6 0.3 0.3
v -0.4 0.3 0.3
v -0.4 0.3 0.2
v -0.2 0.3 0.2
v -1.4 0.3 0.0999999
v -1.2 0.3 0.0999999
v -0.7 0.3 0.0999999
v -0.5 0.3 0.0999999
v 0.3 0.3 0.0999999
v 0.5 0.3 0.0999999
v 0.7 0.3 0.0999999
v -0.4 0.3 -2.38419e-007
v -0.2 0.3 -2.38419e-007
v -1.4 0.3 -0.2
v -1.2 0.3 -0.2
v 2.38419e-007 0.3 -0.2
v 0.1 0.3 -0.2
v -0.7 0.3 -0.3
v -0.5 0.3 -0.3
v 0.5 0.3 -0.3
v 0.7 0.3 -0.3
v 0.8 0.3 -0.3
v 1.2 0.3 -0.3
v -1.5 0.3 -0.5
v -1.2 0.3 -0.5
v -1 0.3 -0.5
v -0.9 0.3 -0.5
v -0.3 0.3 -0.5
v 2.38419e-007 0.3 -0.5
v 0.1 0.3 -0.5
v 0.6 0.3 -0.5
v 0.8 0.3 -0.5
v 0.9 0.3 -0.5
v 1.2 0.3 -0.5
v -1.5 0.3 -0.8
v -1.2 0.3 -0.8
v -1 0.3 -0.8
v -0.9 0.3 -0.8
v -0.3 0.3 -0.8
v 2.38419e-007 0.3 -0.8
v -0.7 0.3 -1
v -0.3 0.3 -1
v 0.2 0.3 -1
v 0.4 0.3 -1
v 0.2 0.3 -1.1
v 0.4 0.3 -1.1
v 0.6 0.3 -1.2
v 0.9 0.3 -1.2
v -0.7 0.3 -1.4
v -0.3 0.3 -1.4
v 1 0.3 -1.4
v 1.3 0.3 -1.4
v -1 0.3 -1.5
v -0.9 0.3 -1.5
v -0.0999999 0.3 -1.5
v 2.38419e-007 0.3 -1.5
v -0.0999999 0.3 -1.6
v 2.38419e-007 0.3 -1.6
v 0.2 0.3 -1.6
v 0.5 0.3 -1.6
v 0.2 0.3 -1.7
v 0.5 0.3 -1.7
v 1 0.3 -1.7
v 1.3 0.3 -1.7
v -1 0.3 -1.8
v -0.9 0.3 -1.8
v -0.6 0.3 -1.8
v -0.5 0.3 -1.8
v -0.6 0.3 -1.9
v -0.5 0.3 -1.9
v -1.6 0.3 -2
v 1.6 0.3 -2
v -1.8 0.4 2
v -1.6 0.4 2
v 1.6 0.4 2
v 1.8 0.4 2
v 1.8 0.4 1.2
v -1.8 0.4 0.2
v -1.8 0.4 -0.2
v 1.8 0.4 -0.2
v 1.8 0.4 -0.9
v -1.8 0.4 -1
v 1.8 0.4 -1.2
v -1.8 0.4 -1.3
v -1.8 0.4 -2
v -1.6 0.4 -2
v 1.6 0.4 -2
v 1.8 0.4 -2
v -2 0.5 2
v -1.8 0.5 2
v 1.8 0.5 2
v 2 0.5 2
v -2 0.5 1.7
v -1.9 0.5 1.7
v -2 0.5 1.3
v -1.9 0.5 1.3
v 1.8 0.5 1.2
v 2 0.5 1.2
v -2 0.5 1
v -1.9 0.5 1
v -2 0.5 0.7
v -1.9 0.5 0.7
v -2 0.5 0.2
v -1.8 0.5 0.2
v -2 0.5 -0.2
v -1.8 0.5 -0.2
v 1.8 0.5 -0.2
v 2 0.5 -0.2
v 1.8 0.5 -0.9
v 2 0.5 -0.9
v -2 0.5 -1
v -1.8 0.5 -1
v 1.8 0.5 -1.2
v 2 0.5 -1.2
v -2 0.5 -1.3
v -1.8 0.5 -1.3
v 1.9 0.5 -1.5
v 2 0.5 -1.5
v 1.9 0.5 -1.7
v 2 0.5 -1.7
v -2 0.5 -2
v -1.8 0.5 -2
v 1.8 0.5 -2
v 2 0.5 -2

# faces
f 3/3/1 2/3/1 1/3/1
f 4/3/1 2/3/1 3/3/1
f 5/3/1 2/3/1 4/3/1
f 6/3/1 2/3/1 5/3/1
f 7/3/1 2/3/1 6/3/1
f 8/3/1 2/3/1 7/3/1
f 9/3/1 2/3/1 8/3/1
f 10/3/1 2/3/1 9/3/1
f 11/3/1 2/3/1 10/3/1
f 12/3/1 2/3/1 11/3/1
f 13/1/1 4/1/1 3/1/1
f 14/2/1 5/2/1 4/2/1
f 14/1/1 4/1/1 13/1/1
f 15/1/1 6/1/1 5/1/1
f 15/2/1 5/2/1 14/2/1
f 16/2/1 7/2/1 6/2/1
f 16/1/1 6/1/1 15/1/1
f 17/1/1 8/1/1 7/1/1
f 17/2/1 7/2/1 16/2/1
f 18/2/1 9/2/1 8/2/1
f 18/1/1 8/1/1 17/1/1
f 19/1/1 10/1/1 9/1/1
f 19/2/1 9/2/1 18/2/1
f 20/2/1 11/2/1 10/2/1
f 20/1/1 10/1/1 19/1/1
f 21/1/1 12/1/1 11/1/1
f 21/2/1 11/2/1 20/2/1
f 22/1/1 12/1/1 21/1/1
f 25/3/1 24/3/1 23/3/1
f 26/3/1 24/3/1 25/3/1
f 33/1/1 28/1/1 27/1/1
f 34/2/1 29/2/1 28/2/1
f 34/1/1 28/1/1 33/1/1
f 35/1/1 30/1/1 29/1/1
f 35/2/1 29/2/1 34/2/1
f 36/2/1 31/2/1 30/2/1
f 36/1/1 30/1/1 35/1/1
f 37/1/1 32/1/1 31/1/1
f 37/2/1 31/2/1 36/2/1
f 38/1/1 32/1/1 37/1/1
f 39/1/2 40/1/2 45/1/2
f 40/2/2 41/2/2 46/2/2
f 45/1/2 40/1/2 46/1/2
f 41/1/2 42/1/2 47/1/2
f 46/2/2 41/2/2 47/2/2
f 42/2/2 43/2/2 48/2/2
f 47/1/2 42/1/2 48/1/2
f 43/1/2 44/1/2 49/1/2
f 48/2/2 43/2/2 49/2/2
f 49/1/2 44/1/2 50/1/2
f 51/3/2 52/3/2 53/3/2
f 53/3/2 52/3/2 54/3/2
f 55/3/2 56/3/2 57/3/2
f 57/3/2 56/3/2 58/3/2
f 58/3/2 56/3/2 59/3/2
f 59/3/2 56/3/2 60/3/2
f 60/3/2 56/3/2 61/3/2
f 61/3/2 56/3/2 62/3/2
f 62/3/2 56/3/2 63/3/2
f 63/3/2 56/3/2 64/3/2
f 57/1/2 58/1/2 65/1/2
f 58/2/2 59/2/2 66/2/2
f 65/1/2 58/1/2 66/1/2
f 59/1/2 60/1/2 67/1/2
f 66/2/2 59/2/2 67/2/2
f 60/2/2 61/2/2 68/2/2
f 67/1/2 60/1/2 68/1/2
f 61/1/2 62/1/2 69/1/2
f 68/2/2 61/2/2 69/2/2
f 62/2/2 63/2/2 70/2/2
f 69/1/2 62/1/2 70/1/2
f 63/1/2 64/1/2 71/1/2
f 70/2/2 63/2/2 71/2/2
f 71/1/2 64/1/2 72/1/2
f 76/3/3 74/3/3 73/3/3
f 76/1/3 75/1/3 74/1/3
f 77/1/3 75/1/3 76/1/3
f 78/3/3 76/3/3 73/3/3
f 79/3/3 76/3/3 78/3/3
f 80/3/3 78/3/3 73/3/3
f 81/3/3 78/3/3 80/3/3
f 82/3/3 80/3/3 73/3/3
f 82/4/3 81/4/3 80/4/3
f 83/4/3 81/4/3 82/4/3
f 84/3/3 83/3/3 82/3/3
f 86/3/3 85/3/3 84/3/3
f 88/3/3 86/3/3 84/3/3
f 88/3/3 84/3/3 82/3/3
f 88/3/3 82/3/3 73/3/3
f 89/1/3 87/1/3 86/1/3
f 89/3/3 86/3/3 88/3/3
f 90/1/3 87/1/3 89/1/3
f 91/3/4 92/3/4 94/3/4
f 92/1/4 93/1/4 94/1/4
f 94/1/4 93/1/4 95/1/4
f 91/3/4 94/3/4 96/3/4
f 96/3/4 94/3/4 97/3/4
f 91/3/4 96/3/4 98/3/4
f 98/3/4 99/3/4 100/3/4
f 98/3/4 100/3/4 102/3/4
f 91/3/4 98/3/4 102/3/4
f 100/1/4 101/1/4 103/1/4
f 102/3/4 100/3/4 103/3/4
f 103/1/4 101/1/4 104/1/4
f 107/3/5 106/3/5 105/3/5
f 108/3/5 106/3/5 107/3/5
f 109/3/6 110/3/6 113/3/6
f 110/4/6 111/4/6 113/4/6
f 111/3/6 112/3/6 114/3/6
f 113/4/6 111/4/6 114/4/6
f 109/3/6 113/3/6 115/3/6
f 113/3/6 114/3/6 115/3/6
f 115/3/6 114/3/6 116/3/6
f 116/3/6 114/3/6 117/3/6
f 117/3/6 114/3/6 118/3/6
f 116/3/6 117/3/6 119/3/6
f 119/3/6 117/3/6 120/3/6
f 114/3/6 112/3/6 121/3/6
f 118/3/6 114/3/6 121/3/6
f 121/3/6 112/3/6 122/3/6
f 109/3/6 115/3/6 123/3/6
f 115/4/6 116/4/6 123/4/6
f 116/3/6 119/3/6 124/3/6
f 123/4/6 116/4/6 124/4/6
f 119/4/6 120/4/6 125/4/6
f 124/3/6 119/3/6 125/3/6
f 120/3/6 117/3/6 126/3/6
f 125/4/6 120/4/6 126/4/6
f 124/3/6 125/3/6 127/3/6
f 126/3/6 117/3/6 127/3/6
f 125/3/6 126/3/6 127/3/6
f 123/3/6 124/3/6 127/3/6
f 117/4/6 118/4/6 127/4/6
f 118/3/6 121/3/6 128/3/6
f 127/4/6 118/4/6 128/4/6
f 122/3/6 112/3/6 129/3/6
f 129/3/6 112/3/6 130/3/6
f 123/3/6 127/3/6 131/3/6
f 127/3/6 128/3/6 131/3/6
f 131/3/6 128/3/6 132/3/6
f 128/3/6 121/3/6 133/3/6
f 132/3/6 128/3/6 133/3/6
f 121/4/6 122/4/6 133/4/6
f 122/3/6 129/3/6 134/3/6
f 133/4/6 122/4/6 134/4/6
f 131/4/6 132/4/6 135/4/6
f 123/3/6 131/3/6 135/3/6
f 133/3/6 134/3/6 136/3/6
f 135/4/6 132/4/6 136/4/6
f 132/3/6 133/3/6 136/3/6
f 136/3/6 134/3/6 137/3/6
f 137/3/6 134/3/6 138/3/6
f 134/3/6 129/3/6 139/3/6
f 138/3/6 134/3/6 139/3/6
f 129/4/6 130/4/6 139/4/6
f 130/3/6 112/3/6 140/3/6
f 139/4/6 130/4/6 140/4/6
f 123/3/6 135/3/6 141/3/6
f 136/3/6 137/3/6 141/3/6
f 135/3/6 136/3/6 141/3/6
f 141/3/6 137/3/6 142/3/6
f 142/3/6 137/3/6 143/3/6
f 143/3/6 137/3/6 144/3/6
f 142/3/6 143/3/6 145/3/6
f 145/3/6 143/3/6 146/3/6
f 143/4/6 144/4/6 147/4/6
f 146/3/6 143/3/6 147/3/6
f 144/3/6 137/3/6 148/3/6
f 147/4/6 144/4/6 148/4/6
f 148/3/6 137/3/6 149/3/6
f 149/3/6 137/3/6 150/3/6
f 137/4/6 138/4/6 151/4/6
f 150/3/6 137/3/6 151/3/6
f 138/3/6 139/3/6 152/3/6
f 151/4/6 138/4/6 152/4/6
f 139/3/6 140/3/6 152/3/6
f 123/3/6 141/3/6 153/3/6
f 141/4/6 142/4/6 153/4/6
f 142/3/6 145/3/6 154/3/6
f 153/4/6 142/4/6 154/4/6
f 145/4/6 146/4/6 155/4/6
f 154/3/6 145/3/6 155/3/6
f 153/3/6 154/3/6 155/3/6
f 148/3/6 149/3/6 156/3/6
f 155/4/6 146/4/6 156/4/6
f 146/3/6 147/3/6 156/3/6
f 147/3/6 148/3/6 156/3/6
f 155/3/6 156/3/6 157/3/6
f 156/3/6 149/3/6 157/3/6
f 157/3/6 149/3/6 158/3/6
f 109/3/6 123/3/6 159/3/6
f 153/3/6 155/3/6 159/3/6
f 123/3/6 153/3/6 159/3/6
f 155/3/6 157/3/6 159/3/6
f 159/3/6 157/3/6 160/3/6
f 160/3/6 157/3/6 161/3/6
f 161/3/6 157/3/6 162/3/6
f 149/4/6 150/4/6 163/4/6
f 158/3/6 149/3/6 163/3/6
f 150/3/6 151/3/6 164/3/6
f 163/4/6 150/4/6 164/4/6
f 151/3/6 152/3/6 164/3/6
f 164/3/6 152/3/6 165/3/6
f 162/3/6 157/3/6 166/3/6
f 157/4/6 158/4/6 166/4/6
f 158/3/6 163/3/6 167/3/6
f 166/4/6 158/4/6 167/4/6
f 163/3/6 164/3/6 167/3/6
f 109/3/6 159/3/6 168/3/6
f 159/4/6 160/4/6 168/4/6
f 160/3/6 161/3/6 169/3/6
f 168/4/6 160/4/6 169/4/6
f 167/3/6 164/3/6 170/3/6
f 166/3/6 167/3/6 170/3/6
f 170/3/6 164/3/6 171/3/6
f 161/4/6 162/4/6 172/4/6
f 169/3/6 161/3/6 172/3/6
f 168/3/6 169/3/6 172/3/6
f 162/3/6 166/3/6 173/3/6
f 172/4/6 162/4/6 173/4/6
f 166/3/6 170/3/6 173/3/6
f 171/3/6 164/3/6 174/3/6
f 164/4/6 165/4/6 174/4/6
f 165/3/6 152/3/6 175/3/6
f 174/4/6 165/4/6 175/4/6
f 175/3/6 152/3/6 176/3/6
f 152/3/6 140/3/6 177/3/6
f 176/3/6 152/3/6 177/3/6
f 168/3/6 172/3/6 178/3/6
f 172/3/6 173/3/6 178/3/6
f 109/3/6 168/3/6 178/3/6
f 178/3/6 173/3/6 179/3/6
f 179/3/6 173/3/6 180/3/6
f 180/3/6 173/3/6 181/3/6
f 173/3/6 170/3/6 182/3/6
f 181/3/6 173/3/6 182/3/6
f 170/4/6 171/4/6 183/4/6
f 182/3/6 170/3/6 183/3/6
f 171/3/6 174/3/6 184/3/6
f 183/4/6 171/4/6 184/4/6
f 175/3/6 176/3/6 184/3/6
f 174/3/6 175/3/6 184/3/6
f 184/3/6 176/3/6 185/3/6
f 176/4/6 177/4/6 186/4/6
f 185/3/6 176/3/6 186/3/6
f 186/4/6 177/4/6 187/4/6
f 177/3/6 140/3/6 188/3/6
f 187/4/6 177/4/6 188/4/6
f 178/4/6 179/4/6 189/4/6
f 109/3/6 178/3/6 189/3/6
f 179/3/6 180/3/6 190/3/6
f 189/4/6 179/4/6 190/4/6
f 180/4/6 181/4/6 191/4/6
f 190/3/6 180/3/6 191/3/6
f 181/3/6 182/3/6 192/3/6
f 191/4/6 181/4/6 192/4/6
f 182/4/6 183/4/6 193/4/6
f 192/3/6 182/3/6 193/3/6
f 184/3/6 185/3/6 194/3/6
f 193/4/6 183/4/6 194/4/6
f 183/3/6 184/3/6 194/3/6
f 191/3/6 192/3/6 195/3/6
f 189/3/6 190/3/6 195/3/6
f 193/3/6 194/3/6 195/3/6
f 192/3/6 193/3/6 195/3/6
f 190/3/6 191/3/6 195/3/6
f 195/3/6 194/3/6 196/3/6
f 194/3/6 185/3/6 197/3/6
f 196/3/6 194/3/6 197/3/6
f 197/3/6 185/3/6 198/3/6
f 196/3/6 197/3/6 199/3/6
f 197/4/6 198/4/6 199/4/6
f 198/3/6 185/3/6 200/3/6
f 199/4/6 198/4/6 200/4/6
f 186/4/6 187/4/6 201/4/6
f 200/3/6 185/3/6 201/3/6
f 199/3/6 200/3/6 201/3/6
f 185/4/6 186/4/6 201/4/6
f 187/3/6 188/3/6 202/3/6
f 201/4/6 187/4/6 202/4/6
f 195/4/6 196/4/6 203/4/6
f 189/3/6 195/3/6 203/3/6
f 196/3/6 199/3/6 204/3/6
f 203/4/6 196/4/6 204/4/6
f 201/3/6 202/3/6 204/3/6
f 199/3/6 201/3/6 204/3/6
f 202/3/6 188/3/6 205/3/6
f 204/3/6 202/3/6 205/3/6
f 188/3/6 140/3/6 206/3/6
f 205/3/6 188/3/6 206/3/6
f 189/3/6 203/3/6 207/3/6
f 203/3/6 204/3/6 207/3/6
f 204/3/6 205/3/6 207/3/6
f 207/3/6 205/3/6 208/3/6
f 208/3/6 205/3/6 209/3/6
f 209/3/6 205/3/6 210/3/6
f 208/3/6 209/3/6 211/3/6
f 209/4/6 210/4/6 211/4/6
f 210/3/6 205/3/6 212/3/6
f 211/4/6 210/4/6 212/4/6
f 212/3/6 205/3/6 213/3/6
f 213/3/6 205/3/6 214/3/6
f 211/3/6 212/3/6 215/3/6
f 212/3/6 213/3/6 215/3/6
f 213/4/6 214/4/6 215/4/6
f 214/3/6 205/3/6 216/3/6
f 215/4/6 214/4/6 216/4/6
f 205/4/6 206/4/6 217/4/6
f 216/3/6 205/3/6 217/3/6
f 206/3/6 140/3/6 218/3/6
f 217/4/6 206/4/6 218/4/6
f 189/3/6 207/3/6 219/3/6
f 207/4/6 208/4/6 219/4/6
f 216/3/6 217/3/6 220/3/6
f 219/4/6 208/4/6 220/4/6
f 215/3/6 216/3/6 220/3/6
f 211/3/6 215/3/6 220/3/6
f 208/3/6 211/3/6 220/3/6
f 217/3/6 218/3/6 220/3/6
f 220/3/6 218/3/6 221/3/6
f 221/3/6 218/3/6 222/3/6
f 219/3/6 220/3/6 223/3/6
f 220/3/6 221/3/6 223/3/6
f 221/4/6 222/4/6 223/4/6
f 222/3/6 218/3/6 224/3/6
f 223/4/6 222/4/6 224/4/6
f 189/3/6 219/3/6 225/3/6
f 109/3/6 189/3/6 225/3/6
f 223/3/6 224/3/6 225/3/6
f 219/3/6 223/3/6 225/3/6
f 224/3/6 218/3/6 226/3/6
f 225/3/6 224/3/6 226/3/6
f 218/3/6 140/3/6 226/3/6
f 140/3/6 112/3/6 226/3/6
f 229/3/6 230/3/6 231/3/6
f 227/3/6 228/3/6 232/3/6
f 232/3/6 228/3/6 233/3/6
f 229/3/6 231/3/6 234/3/6
f 229/3/6 234/3/6 235/3/6
f 233/3/6 228/3/6 236/3/6
f 229/3/6 235/3/6 237/3/6
f 236/3/6 228/3/6 238/3/6
f 238/3/6 228/3/6 239/3/6
f 239/3/6 228/3/6 240/3/6
f 229/3/6 237/3/6 241/3/6
f 241/3/6 237/3/6 242/3/6
f 243/1/6 244/1/6 247/1/6
f 247/1/6 244/1/6 248/1/6
f 247/2/6 248/2/6 249/2/6
f 248/1/6 244/1/6 250/1/6
f 249/2/6 248/2/6 250/2/6
f 245/1/6 246/1/6 251/1/6
f 251/1/6 246/1/6 252/1/6
f 249/1/6 250/1/6 253/1/6
f 250/1/6 244/1/6 254/1/6
f 253/1/6 250/1/6 254/1/6
f 253/2/6 254/2/6 255/2/6
f 254/1/6 244/1/6 256/1/6
f 255/2/6 254/2/6 256/2/6
f 255/1/6 256/1/6 257/1/6
f 256/1/6 244/1/6 258/1/6
f 257/1/6 256/1/6 258/1/6
f 257/2/6 258/2/6 259/2/6
f 259/2/6 258/2/6 260/2/6
f 251/2/6 252/2/6 261/2/6
f 261/2/6 252/2/6 262/2/6
f 261/1/6 262/1/6 263/1/6
f 263/1/6 262/1/6 264/1/6
f 259/1/6 260/1/6 265/1/6
f 265/1/6 260/1/6 266/1/6
f 263/2/6 264/2/6 267/2/6
f 267/2/6 264/2/6 268/2/6
f 265/2/6 266/2/6 269/2/6
f 269/2/6 266/2/6 270/2/6
f 267/1/6 268/1/6 271/1/6
f 271/1/6 268/1/6 272/1/6
f 267/1/6 271/1/6 273/1/6
f 271/2/6 272/2/6 273/2/6
f 273/2/6 272/2/6 274/2/6
f 269/1/6 270/1/6 275/1/6
f 275/1/6 270/1/6 276/1/6
f 267/1/6 273/1/6 277/1/6
f 273/1/6 274/1/6 277/1/6
f 277/1/6 274/1/6 278/1/6
